<svg width="560" height="412" viewBox="0 0 560 412" fill="none" xmlns="http://www.w3.org/2000/svg">
<path d="M193.951 75.1084C181.144 93.8045 179.905 113.071 179.896 135.034L179.898 137.293C180.001 183.04 174.295 245.835 215.745 311.476C180.387 282.806 164.362 251.913 157.204 223.088C149.557 192.295 152.008 163.87 152.008 142.591C152.008 130.221 152.446 119.702 155.296 110.186C158.123 100.746 163.345 92.2221 173.048 83.9141C179.34 79.4498 186.418 76.9624 193.951 75.1084Z" fill="white" stroke="white" stroke-width="3"/>
<path d="M243.195 62.9844C236.09 87.9491 237.115 114.504 237.134 139.82C237.172 192.538 234.911 261.352 253.214 339.728C248.134 335.93 243.061 332.139 237.995 328.347C203.842 255.736 208.154 188.648 208.076 138.576V138.575L208.039 129.489C207.983 108.408 208.603 86.9414 219.53 68.8369C223.795 67.7817 228.063 66.7271 232.332 65.6719C235.954 64.7766 239.576 63.8797 243.195 62.9844Z" fill="#36F097" stroke="#36F097" stroke-width="3"/>
<path d="M279.847 55.1543C283.397 55.1543 286.983 55.7151 291.865 56.8828C297.337 107.22 294.705 159.075 294.261 209.846C293.835 257.848 292.149 305.889 287.816 353.671C285.885 355.108 284.397 356.154 283.125 356.854C281.756 357.607 280.753 357.897 279.843 357.897C278.932 357.897 277.929 357.607 276.559 356.854C275.286 356.153 273.795 355.108 271.861 353.671C267.665 307.38 265.96 260.855 265.462 214.366L265.418 209.846C264.973 159.076 262.34 107.23 267.812 56.8848C272.704 55.7164 276.295 55.1543 279.847 55.1543Z" fill="#36F097" stroke="#36F097" stroke-width="3"/>
<path d="M327.357 65.6602C331.626 66.7154 335.895 67.77 340.159 68.8252C351.086 86.9296 351.7 108.395 351.648 129.478L351.613 138.564C351.536 188.723 355.836 255.763 321.692 328.336C316.635 332.135 311.561 335.927 306.485 339.725C324.206 263.855 322.65 197.073 322.56 144.899L322.556 139.809C322.574 114.502 323.608 87.9383 316.494 62.9727C320.114 63.868 323.736 64.7648 327.357 65.6602Z" fill="#36F097" stroke="#36F097" stroke-width="3"/>
<path d="M365.764 75.1084C373.29 76.9605 380.364 79.4425 386.655 83.9131C396.359 92.2218 401.583 100.745 404.41 110.186C407.26 119.702 407.698 130.221 407.698 142.591C407.698 166.145 409.721 194.903 401.865 225.276C394.521 253.672 378.522 283.495 343.962 311.485C385.649 245.452 379.715 181.937 379.817 137.293C379.882 114.396 379.008 94.4438 365.764 75.1084Z" fill="white" stroke="white" stroke-width="3"/>
<path d="M542.841 62.625C555.996 66.2593 562.175 81.7944 554.505 93.3145L554.504 93.3154C543.373 110.039 525.991 124.972 506.756 137.991C487.535 151.001 466.56 162.037 448.328 171.002L447.49 171.414V172.348C447.49 186.381 448.106 205.98 441.152 233.079L440.864 234.205L441.882 234.766C477.657 254.465 502.462 273.966 516.968 293.689C525.11 304.806 519.824 320.525 506.977 324.942C501.78 308.162 485.73 292.302 467.412 278.78C448.96 265.159 427.895 253.69 412.382 245.828C425.672 210.668 423.871 183.739 423.827 156.57C443.128 147.549 470.524 134.156 494.248 117.975C506.29 109.762 517.431 100.801 526.099 91.2949C534.343 82.2529 540.42 72.6355 542.841 62.625Z" fill="white" stroke="white" stroke-width="3"/>
<path d="M506.8 2.49414C520.28 -1.8844 533.974 8.83987 532.938 23.0039L532.876 23.7051C530.449 46.5724 515.502 66.2053 494.594 83.3057C474.292 99.9099 448.57 113.965 423.828 126.14V124.64C423.828 94.1314 403.074 67.7986 373.548 60.5L280.214 37.4219L279.854 37.333L279.494 37.4219L186.16 60.5V60.501C164.768 65.796 148.042 81.0284 140.405 100.548C136.114 111.468 135.852 120.563 135.861 126.133C114.046 115.41 88.4799 101.937 67.5293 85.3037C45.8538 68.0944 29.3677 47.7007 26.8223 23.7148V23.7139C25.2657 9.16375 39.2634 -1.94863 52.9014 2.50195C47.9335 15.9325 49.9729 28.0559 56.1445 38.9453C62.4949 50.1502 73.2092 60.041 85.0615 68.8496C94.7583 76.3696 106.691 83.7796 117.401 89.8398L118.855 90.6631L119.518 89.1289C122.413 82.4194 126.121 76.1181 130.527 70.3398L131.475 69.0977L130.195 68.2012C116.768 58.7955 100.285 44.427 93.3037 27.1504H93.3047C88.1921 14.4825 99.9045 1.74408 112.717 5.26562C110.267 14.0938 114.59 23.1519 121.171 31.1162C128.174 39.5918 138.07 47.2576 146.565 52.8389L147.442 53.415L148.284 52.7881C158.089 45.4884 164.729 42.0732 182.057 37.2119C199.459 32.3296 227.423 26.0484 279.844 13.0107C333.115 26.2561 361.217 32.6349 378.471 37.5117C395.647 42.3665 401.862 45.6738 411.404 52.7783L412.246 53.4053L413.123 52.8291C421.624 47.2478 431.522 39.5821 438.526 31.1064C445.108 23.142 449.431 14.0841 446.98 5.25586C459.795 1.73283 471.515 14.4734 466.395 27.1396V27.1406C459.423 44.4165 442.932 58.7853 429.504 68.1914L428.224 69.0879L429.171 70.3301C433.578 76.1084 437.286 82.4096 440.181 89.1191L440.843 90.6533L442.297 89.8301C454.698 82.8089 465.479 75.8791 474.51 68.9424L474.516 68.9385C486.234 59.8477 497.058 50.0875 503.508 39.0166C509.79 28.2331 511.912 16.2133 506.8 2.49414Z" fill="white" stroke="white" stroke-width="3"/>
<path d="M112.215 171.403L111.375 170.991C93.0767 162.022 72.0866 150.97 52.876 137.953C33.951 125.13 16.8452 110.462 5.72559 94.0869L5.2002 93.3057C-2.45212 81.7852 3.72769 66.2497 16.8828 62.6152C19.2716 72.4995 25.1899 81.9853 33.251 90.918C41.7298 100.314 52.6523 109.182 64.5518 117.354C88.0147 133.466 115.45 146.981 135.876 156.55C135.836 184.642 134.103 210.871 147.323 245.812C131.81 253.73 110.753 265.179 92.3047 278.777C73.9894 292.278 57.9389 308.113 52.7266 324.943C39.8941 320.534 34.5861 304.82 42.7373 293.707C57.2037 273.985 82.0173 254.485 117.804 234.756L118.82 234.194L118.532 233.07C111.54 205.748 112.215 185.957 112.215 172.338V171.403Z" fill="white" stroke="white" stroke-width="3"/>
<path d="M158.996 270.739C171.441 292.605 188.21 311.22 207.162 325.396L278.953 379.095L279.852 379.767L280.75 379.095C354.733 323.754 377.89 311.04 400.697 270.74C420.373 280.915 442.491 293.413 460.744 308.452C479.123 323.596 493.401 341.165 497.487 361.347L497.675 362.31C500.317 376.634 486.942 388.585 473.124 384.913C474.593 380.42 476.566 372.519 473.169 361.953C469.38 350.171 458.999 335.319 434.436 318.186L434.42 318.175L434.403 318.164L433.677 317.656C431.209 315.909 423.326 310.302 409.838 302.549L408.682 301.885L407.886 302.955C403.807 308.447 399.428 313.73 394.815 318.783L393.629 320.083L395.101 321.048C408.834 330.063 428.029 345.344 436.05 364.198L436.424 365.099C441.536 377.766 429.823 390.503 417.011 386.981C419.717 377.231 414.167 367.198 406.372 358.617C398.094 349.504 386.829 341.505 378.246 336.316L377.321 335.758L376.499 336.457C369.184 342.678 374.87 338.187 279.86 409.267C184.155 337.677 190.277 342.456 183.224 336.457L182.4 335.758L181.476 336.316C172.893 341.505 161.627 349.504 153.35 358.617C145.555 367.198 140.004 377.231 142.71 386.981C129.896 390.503 118.178 377.764 123.298 365.099L123.299 365.098C131.073 345.84 150.671 330.206 164.622 321.048L166.093 320.083L164.906 318.783C160.284 313.72 155.915 308.447 151.836 302.955L151.041 301.885L149.885 302.549C134.484 311.392 126.383 317.453 125.312 318.169L125.299 318.178L125.286 318.186C100.722 335.319 90.3419 350.171 86.5508 361.953C83.1544 372.509 85.1158 380.405 86.5762 384.898C72.6341 388.557 59.3871 376.509 62.0371 362.301L62.0381 362.299C65.883 341.51 80.6373 323.459 99.4648 308.043C117.855 292.985 139.943 280.594 158.996 270.739Z" fill="white" stroke="white" stroke-width="3"/>
</svg>
