<?xml version="1.0" encoding="UTF-8"?>
<svg id="_Слой_2" data-name="Слой_2" xmlns="http://www.w3.org/2000/svg" xmlns:xlink="http://www.w3.org/1999/xlink" viewBox="0 0 663.32 522.73">
  <defs>
    <style>
      .cls-1, .cls-2 {
        fill: #fff;
      }

      .cls-3 {
        mask: url(#mask);
      }

      .cls-2 {
        stroke: #fff;
      }

      .cls-2, .cls-4 {
        stroke-width: 3px;
      }

      .cls-4 {
        fill: #36f097;
        stroke: #36f097;
      }
    </style>
    <mask id="mask" x="0" y="396.97" width="663.32" height="125.76" maskUnits="userSpaceOnUse">
      <g id="path-10-inside-1_5207_73">
        <path class="cls-1" d="M61.88,521.73c-35.87,0-61.88-26.86-61.88-61.88s26.01-61.88,61.88-61.88c21.59,0,40.63,10.71,51,27.54l-23.46,13.6c-5.27-9.18-15.47-14.62-27.54-14.62-21.08,0-34.68,14.11-34.68,35.36s13.6,35.36,34.68,35.36c12.07,0,22.44-5.44,27.54-14.62l23.46,13.6c-10.2,16.83-29.24,27.54-51,27.54ZM180.75,521.73c-34.17,0-61.88-26.86-61.88-61.88s27.71-61.88,61.88-61.88,61.88,26.86,61.88,61.88-27.71,61.88-61.88,61.88ZM180.75,495.21c19.38,0,34.68-14.11,34.68-35.36s-15.3-35.36-34.68-35.36-34.68,14.11-34.68,35.36,15.3,35.36,34.68,35.36ZM305.54,400.35c32.81,0,57.8,25.84,57.8,59.5s-24.99,59.5-57.8,59.5h-47.6v-119h47.6ZM305.54,493.17c18.7,0,31.62-12.92,31.62-33.32s-12.92-33.32-31.62-33.32h-20.4v66.64h20.4ZM405.83,493.17h47.6v26.18h-74.8v-119h73.95v26.18h-46.75v19.72h42.5v25.84h-42.5v21.08ZM542.56,457.64c8.84,5.61,14.62,14.79,14.62,26.86,0,21.08-17.17,34.85-38.42,34.85h-49.98v-119h46.58c20.74,0,37.57,13.43,37.57,34,0,9.86-3.91,17.68-10.37,23.29ZM515.36,425.85h-19.38v21.08h19.38c6.12,0,10.37-4.42,10.37-10.54s-4.08-10.54-10.37-10.54ZM518.76,493.85c6.8,0,11.22-4.76,11.22-11.39s-4.42-11.39-11.22-11.39h-22.78v22.78h22.78ZM661.64,400.35l-39.95,73.27v45.73h-27.2v-45.73l-39.95-73.27h30.94l22.61,45.9,22.61-45.9h30.94Z"/>
      </g>
    </mask>
  </defs>
  <g id="_Слой_1-2" data-name="Слой_1">
    <path class="cls-2" d="M216.85,21.45c-12.81,18.7-14.05,37.96-14.06,59.93v2.26c.11,45.75-5.6,108.54,35.85,174.18-35.36-28.67-51.38-59.56-58.54-88.39-7.65-30.79-5.2-59.22-5.2-80.5,0-12.37.44-22.89,3.29-32.41,2.83-9.44,8.05-17.96,17.75-26.27,6.29-4.46,13.37-6.95,20.9-8.81Z"/>
    <path class="cls-4" d="M266.1,9.33c-7.11,24.96-6.08,51.52-6.06,76.84.04,52.72-2.22,121.53,16.08,199.91-5.08-3.8-10.15-7.59-15.22-11.38-34.15-72.61-29.84-139.7-29.92-189.77h0s-.04-9.09-.04-9.09c-.06-21.08.56-42.55,11.49-60.65,4.26-1.06,8.53-2.11,12.8-3.17,3.62-.9,7.24-1.79,10.86-2.69Z"/>
    <path class="cls-4" d="M302.75,1.5c3.55,0,7.14.56,12.02,1.73,5.47,50.34,2.84,102.19,2.4,152.96-.43,48-2.11,96.04-6.44,143.82-1.93,1.44-3.42,2.48-4.69,3.18-1.37.75-2.37,1.04-3.28,1.04s-1.91-.29-3.28-1.04c-1.27-.7-2.76-1.75-4.7-3.18-4.2-46.29-5.9-92.82-6.4-139.3l-.04-4.52c-.45-50.77-3.08-102.62,2.39-152.96,4.89-1.17,8.48-1.73,12.03-1.73Z"/>
    <path class="cls-4" d="M350.26,12.01c4.27,1.06,8.54,2.11,12.8,3.17,10.93,18.1,11.54,39.57,11.49,60.65l-.04,9.09c-.08,50.16,4.22,117.2-29.92,189.77-5.06,3.8-10.13,7.59-15.21,11.39,17.72-75.87,16.17-142.65,16.08-194.83v-5.09c.01-25.31,1.05-51.87-6.07-76.84,3.62.9,7.24,1.79,10.86,2.69Z"/>
    <path class="cls-2" d="M388.67,21.45c7.53,1.85,14.6,4.33,20.89,8.8,9.7,8.31,14.93,16.83,17.76,26.27,2.85,9.52,3.29,20.03,3.29,32.41,0,23.55,2.02,52.31-5.83,82.68-7.34,28.4-23.34,58.22-57.9,86.21,41.69-66.03,35.75-129.55,35.86-174.19.06-22.9-.81-42.85-14.05-62.18Z"/>
    <path class="cls-2" d="M565.74,8.97c13.15,3.63,19.33,19.17,11.66,30.69h0c-11.13,16.72-28.51,31.66-47.75,44.68-19.22,13.01-40.2,24.05-58.43,33.01l-.84.41v.93c0,14.03.62,33.63-6.34,60.73l-.29,1.13,1.02.56c35.78,19.7,60.58,39.2,75.09,58.92,8.14,11.12,2.86,26.84-9.99,31.25-5.2-16.78-21.25-32.64-39.57-46.16-18.45-13.62-39.52-25.09-55.03-32.95,13.29-35.16,11.49-62.09,11.45-89.26,19.3-9.02,46.7-22.41,70.42-38.6,12.04-8.21,23.18-17.17,31.85-26.68,8.24-9.04,14.32-18.66,16.74-28.67Z"/>
    <path class="cls-2" d="M135.11,117.75l-.84-.41c-18.3-8.97-39.29-20.02-58.5-33.04-18.92-12.82-36.03-27.49-47.15-43.87l-.53-.78c-7.65-11.52-1.47-27.06,11.68-30.69,2.39,9.88,8.31,19.37,16.37,28.3,8.48,9.4,19.4,18.26,31.3,26.44,23.46,16.11,50.9,29.63,71.32,39.2-.04,28.09-1.77,54.32,11.45,89.26-15.51,7.92-36.57,19.37-55.02,32.97-18.32,13.5-34.37,29.34-39.58,46.17-12.83-4.41-18.14-20.12-9.99-31.24,14.47-19.72,39.28-39.22,75.07-58.95l1.02-.56-.29-1.12c-6.99-27.32-6.32-47.11-6.32-60.73v-.93Z"/>
    <path class="cls-2" d="M181.9,217.08c12.45,21.87,29.21,40.48,48.17,54.66l71.79,53.7.9.67.9-.67c73.98-55.34,97.14-68.05,119.95-108.36,19.68,10.18,41.79,22.67,60.05,37.71,18.38,15.14,32.66,32.71,36.74,52.89l.19.96c2.64,14.32-10.73,26.27-24.55,22.6,1.47-4.49,3.44-12.39.05-22.96-3.79-11.78-14.17-26.63-38.73-43.77h-.01s-.02-.02-.02-.02l-.73-.51c-2.47-1.75-10.35-7.35-23.84-15.11l-1.16-.66-.8,1.07c-4.08,5.49-8.46,10.78-13.07,15.83l-1.19,1.3,1.47.96c13.73,9.01,32.93,24.3,40.95,43.15l.37.9c5.11,12.67-6.6,25.4-19.41,21.88,2.71-9.75-2.84-19.78-10.64-28.36-8.28-9.11-19.54-17.11-28.13-22.3l-.92-.56-.82.7c-7.32,6.22-1.63,1.73-96.64,72.81-95.71-71.59-89.58-66.81-96.64-72.81l-.82-.7-.93.56c-8.58,5.19-19.85,13.19-28.12,22.3-7.79,8.58-13.35,18.61-10.64,28.36-12.81,3.52-24.53-9.22-19.41-21.88h0c7.77-19.26,27.37-34.89,41.32-44.05l1.47-.96-1.19-1.3c-4.62-5.06-8.99-10.34-13.07-15.83l-.79-1.07-1.16.66c-15.4,8.84-23.5,14.9-24.57,15.62h-.01s-.01.02-.01.02c-24.56,17.13-34.94,31.98-38.73,43.77-3.4,10.56-1.43,18.45.03,22.95-13.94,3.66-27.19-8.39-24.54-22.6h0c3.84-20.79,18.6-38.84,37.43-54.26,18.39-15.06,40.48-27.45,59.53-37.3Z"/>
    <path class="cls-1" d="M61.88,521.73c-35.87,0-61.88-26.86-61.88-61.88s26.01-61.88,61.88-61.88c21.59,0,40.63,10.71,51,27.54l-23.46,13.6c-5.27-9.18-15.47-14.62-27.54-14.62-21.08,0-34.68,14.11-34.68,35.36s13.6,35.36,34.68,35.36c12.07,0,22.44-5.44,27.54-14.62l23.46,13.6c-10.2,16.83-29.24,27.54-51,27.54ZM180.75,521.73c-34.17,0-61.88-26.86-61.88-61.88s27.71-61.88,61.88-61.88,61.88,26.86,61.88,61.88-27.71,61.88-61.88,61.88ZM180.75,495.21c19.38,0,34.68-14.11,34.68-35.36s-15.3-35.36-34.68-35.36-34.68,14.11-34.68,35.36,15.3,35.36,34.68,35.36ZM305.54,400.35c32.81,0,57.8,25.84,57.8,59.5s-24.99,59.5-57.8,59.5h-47.6v-119h47.6ZM305.54,493.17c18.7,0,31.62-12.92,31.62-33.32s-12.92-33.32-31.62-33.32h-20.4v66.64h20.4ZM405.83,493.17h47.6v26.18h-74.8v-119h73.95v26.18h-46.75v19.72h42.5v25.84h-42.5v21.08ZM542.56,457.64c8.84,5.61,14.62,14.79,14.62,26.86,0,21.08-17.17,34.85-38.42,34.85h-49.98v-119h46.58c20.74,0,37.57,13.43,37.57,34,0,9.86-3.91,17.68-10.37,23.29ZM515.36,425.85h-19.38v21.08h19.38c6.12,0,10.37-4.42,10.37-10.54s-4.08-10.54-10.37-10.54ZM518.76,493.85c6.8,0,11.22-4.76,11.22-11.39s-4.42-11.39-11.22-11.39h-22.78v22.78h22.78ZM661.64,400.35l-39.95,73.27v45.73h-27.2v-45.73l-39.95-73.27h30.94l22.61,45.9,22.61-45.9h30.94Z"/>
    <g class="cls-3">
      <path class="cls-1" d="M112.88,425.51l.5.86.89-.51-.54-.88-.85.52ZM112.88,494.19l.85.52.53-.87-.88-.51-.5.87ZM61.88,397.97v1c21.26,0,39.97,10.54,50.15,27.07l.85-.52.85-.52c-10.56-17.14-29.93-28.02-51.85-28.02v1ZM112.88,425.51l-.5-.86-23.46,13.6.5.87.5.86,23.46-13.6-.5-.86ZM89.42,480.59l-.5.86,23.46,13.6.5-.86.5-.87-23.46-13.6-.5.86ZM112.88,494.19l-.86-.52c-10.01,16.51-28.71,27.06-50.14,27.06v2c22.09,0,41.46-10.88,51.85-28.02l-.85-.52ZM180.75,521.73v-1c-33.63,0-60.88-26.42-60.88-60.88h-2c0,35.58,28.17,62.88,62.88,62.88v-1ZM118.87,459.85h1c0-34.46,27.25-60.88,60.88-60.88v-2c-34.71,0-62.88,27.3-62.88,62.88h1ZM180.75,397.97v1c33.63,0,60.88,26.42,60.88,60.88h2c0-35.58-28.17-62.88-62.88-62.88v1ZM242.63,459.85h-1c0,34.46-27.25,60.88-60.88,60.88v2c34.71,0,62.88-27.3,62.88-62.88h-1ZM180.75,495.21v1c19.92,0,35.68-14.55,35.68-36.36h-2c0,20.69-14.84,34.36-33.68,34.36v1ZM215.43,459.85h1c0-21.81-15.76-36.36-35.68-36.36v2c18.84,0,33.68,13.67,33.68,34.36h1ZM180.75,424.49v-1c-19.92,0-35.68,14.55-35.68,36.36h2c0-20.69,14.84-34.36,33.68-34.36v-1ZM146.07,459.85h-1c0,21.81,15.76,36.36,35.68,36.36v-2c-18.84,0-33.68-13.67-33.68-34.36h-1ZM257.94,519.35h-1v1h1v-1ZM257.94,400.35v-1h-1v1h1ZM285.14,426.53v-1h-1v1h1ZM285.14,493.17h-1v1h1v-1ZM305.54,400.35v1c32.23,0,56.8,25.36,56.8,58.5h2c0-34.18-25.41-60.5-58.8-60.5v1ZM363.34,459.85h-1c0,33.14-24.57,58.5-56.8,58.5v2c33.39,0,58.8-26.32,58.8-60.5h-1ZM305.54,519.35v-1h-47.6v2h47.6v-1ZM257.94,519.35h1v-119h-2v119h1ZM257.94,400.35v1h47.6v-2h-47.6v1ZM305.54,493.17v1c9.59,0,17.76-3.32,23.54-9.32,5.78-6,9.08-14.59,9.08-25h-2c0,9.99-3.16,18.05-8.52,23.62-5.36,5.56-12.99,8.7-22.1,8.7v1ZM337.16,459.85h1c0-10.41-3.3-19.01-9.08-25-5.78-6-13.96-9.32-23.54-9.32v2c9.11,0,16.75,3.14,22.1,8.7,5.36,5.56,8.52,13.63,8.52,23.62h1ZM305.54,426.53v-1h-20.4v2h20.4v-1ZM285.14,426.53h-1v66.64h2v-66.64h-1ZM285.14,493.17v1h20.4v-2h-20.4v1ZM405.83,493.17h-1v1h1v-1ZM453.44,493.17h1v-1h-1v1ZM453.44,519.35v1h1v-1h-1ZM378.63,519.35h-1v1h1v-1ZM378.63,400.35v-1h-1v1h1ZM452.58,400.35h1v-1h-1v1ZM452.58,426.53v1h1v-1h-1ZM405.83,426.53v-1h-1v1h1ZM405.83,446.25h-1v1h1v-1ZM448.33,446.25h1v-1h-1v1ZM448.33,472.09v1h1v-1h-1ZM405.83,472.09v-1h-1v1h1ZM405.83,493.17v1h47.6v-2h-47.6v1ZM453.44,493.17h-1v26.18h2v-26.18h-1ZM453.44,519.35v-1h-74.8v2h74.8v-1ZM378.63,519.35h1v-119h-2v119h1ZM378.63,400.35v1h73.95v-2h-73.95v1ZM452.58,400.35h-1v26.18h2v-26.18h-1ZM452.58,426.53v-1h-46.75v2h46.75v-1ZM405.83,426.53h-1v19.72h2v-19.72h-1ZM405.83,446.25v1h42.5v-2h-42.5v1ZM448.33,446.25h-1v25.84h2v-25.84h-1ZM448.33,472.09v-1h-42.5v2h42.5v-1ZM405.83,472.09h-1v21.08h2v-21.08h-1ZM542.56,457.64l-.66-.76-1.01.88,1.13.72.54-.84ZM468.78,519.35h-1v1h1v-1ZM468.78,400.35v-1h-1v1h1ZM495.98,425.85v-1h-1v1h1ZM495.98,446.93h-1v1h1v-1ZM495.98,471.07v-1h-1v1h1ZM495.98,493.85h-1v1h1v-1ZM542.56,457.64l-.54.84c8.57,5.44,14.16,14.31,14.16,26.02h2c0-12.43-5.97-21.92-15.08-27.7l-.54.84ZM557.18,484.5h-1c0,20.41-16.59,33.85-37.42,33.85v2c21.67,0,39.42-14.1,39.42-35.85h-1ZM518.76,519.35v-1h-49.98v2h49.98v-1ZM468.78,519.35h1v-119h-2v119h1ZM468.78,400.35v1h46.58v-2h-46.58v1ZM515.36,400.35v1c20.32,0,36.57,13.11,36.57,33h2c0-21.25-17.41-35-38.57-35v1ZM552.93,434.35h-1c0,9.57-3.78,17.11-10.03,22.54l.66.76.66.75c6.68-5.8,10.71-13.89,10.71-24.04h-1ZM515.36,425.85v-1h-19.38v2h19.38v-1ZM495.98,425.85h-1v21.08h2v-21.08h-1ZM495.98,446.93v1h19.38v-2h-19.38v1ZM515.36,446.93v1c3.31,0,6.17-1.2,8.2-3.28,2.03-2.07,3.17-4.97,3.17-8.26h-2c0,2.82-.98,5.2-2.61,6.87-1.62,1.66-3.95,2.67-6.76,2.67v1ZM525.73,436.39h1c0-3.29-1.1-6.18-3.11-8.26-2.01-2.08-4.88-3.28-8.26-3.28v2c2.9,0,5.23,1.01,6.82,2.67,1.6,1.66,2.55,4.03,2.55,6.87h1ZM518.76,493.85v1c3.64,0,6.72-1.28,8.88-3.51,2.16-2.23,3.34-5.34,3.34-8.88h-2c0,3.09-1.03,5.68-2.78,7.49-1.75,1.8-4.28,2.9-7.44,2.9v1ZM529.98,482.46h1c0-3.54-1.18-6.65-3.34-8.88-2.16-2.23-5.24-3.51-8.88-3.51v2c3.16,0,5.69,1.1,7.44,2.9,1.75,1.81,2.78,4.4,2.78,7.49h1ZM518.76,471.07v-1h-22.78v2h22.78v-1ZM495.98,471.07h-1v22.78h2v-22.78h-1ZM495.98,493.85v1h22.78v-2h-22.78v1ZM661.64,400.35l.88.48.81-1.48h-1.68v1ZM621.69,473.62l-.88-.48-.12.22v.26h1ZM621.69,519.35v1h1v-1h-1ZM594.49,519.35h-1v1h1v-1ZM594.49,473.62h1v-.26l-.12-.22-.88.48ZM554.54,400.35v-1h-1.68l.81,1.48.88-.48ZM585.48,400.35l.9-.44-.28-.56h-.62v1ZM608.09,446.25l-.9.44.9,1.82.9-1.82-.9-.44ZM630.7,400.35v-1h-.62l-.28.56.9.44ZM661.64,400.35l-.88-.48-39.95,73.27.88.48.88.48,39.95-73.27-.88-.48ZM621.69,473.62h-1v45.73h2v-45.73h-1ZM621.69,519.35v-1h-27.2v2h27.2v-1ZM594.49,519.35h1v-45.73h-2v45.73h1ZM594.49,473.62l.88-.48-39.95-73.27-.88.48-.88.48,39.95,73.27.88-.48ZM554.54,400.35v1h30.94v-2h-30.94v1ZM585.48,400.35l-.9.44,22.61,45.9.9-.44.9-.44-22.61-45.9-.9.44ZM608.09,446.25l.9.44,22.61-45.9-.9-.44-.9-.44-22.61,45.9.9.44ZM630.7,400.35v1h30.94v-2h-30.94v1Z"/>
    </g>
  </g>
</svg>