<?xml version="1.0" encoding="UTF-8"?>
<svg id="_Слой_2" data-name="Слой_2" xmlns="http://www.w3.org/2000/svg" xmlns:xlink="http://www.w3.org/1999/xlink" viewBox="0 0 664.32 576.38">
  <defs>
    <style>
      .cls-1, .cls-2 {
        fill: #fff;
      }

      .cls-3 {
        mask: url(#mask);
      }

      .cls-2 {
        stroke: #fff;
      }

      .cls-2, .cls-4 {
        stroke-width: 3px;
      }

      .cls-4 {
        fill: #36f097;
        stroke: #36f097;
      }
    </style>
    <mask id="mask" x="0" y="450.62" width="664.32" height="125.76" maskUnits="userSpaceOnUse">
      <g id="path-10-inside-1_5207_73">
        <path class="cls-1" d="M62.88,575.38c-35.87,0-61.88-26.86-61.88-61.88s26.01-61.88,61.88-61.88c21.59,0,40.63,10.71,51,27.54l-23.46,13.6c-5.27-9.18-15.47-14.62-27.54-14.62-21.08,0-34.68,14.11-34.68,35.36s13.6,35.36,34.68,35.36c12.07,0,22.44-5.44,27.54-14.62l23.46,13.6c-10.2,16.83-29.24,27.54-51,27.54ZM181.75,575.38c-34.17,0-61.88-26.86-61.88-61.88s27.71-61.88,61.88-61.88,61.88,26.86,61.88,61.88-27.71,61.88-61.88,61.88ZM181.75,548.86c19.38,0,34.68-14.11,34.68-35.36s-15.3-35.36-34.68-35.36-34.68,14.11-34.68,35.36,15.3,35.36,34.68,35.36ZM306.54,454c32.81,0,57.8,25.84,57.8,59.5s-24.99,59.5-57.8,59.5h-47.6v-119h47.6ZM306.54,546.82c18.7,0,31.62-12.92,31.62-33.32s-12.92-33.32-31.62-33.32h-20.4v66.64h20.4ZM406.83,546.82h47.6v26.18h-74.8v-119h73.95v26.18h-46.75v19.72h42.5v25.84h-42.5v21.08ZM543.56,511.29c8.84,5.61,14.62,14.79,14.62,26.86,0,21.08-17.17,34.85-38.42,34.85h-49.98v-119h46.58c20.74,0,37.57,13.43,37.57,34,0,9.86-3.91,17.68-10.37,23.29ZM516.36,479.5h-19.38v21.08h19.38c6.12,0,10.37-4.42,10.37-10.54s-4.08-10.54-10.37-10.54ZM519.76,547.5c6.8,0,11.22-4.76,11.22-11.39s-4.42-11.39-11.22-11.39h-22.78v22.78h22.78ZM662.64,454l-39.95,73.27v45.73h-27.2v-45.73l-39.95-73.27h30.94l22.61,45.9,22.61-45.9h30.94Z"/>
      </g>
    </mask>
  </defs>
  <g id="_Слой_1-2" data-name="Слой_1">
    <path class="cls-2" d="M217.85,75.11c-12.81,18.7-14.05,37.96-14.06,59.93v2.26c.11,45.75-5.6,108.54,35.85,174.18-35.36-28.67-51.38-59.56-58.54-88.39-7.65-30.79-5.2-59.22-5.2-80.5,0-12.37.44-22.89,3.29-32.41,2.83-9.44,8.05-17.96,17.75-26.27,6.29-4.46,13.37-6.95,20.9-8.81Z"/>
    <path class="cls-4" d="M267.1,62.98c-7.11,24.96-6.08,51.52-6.06,76.84.04,52.72-2.22,121.53,16.08,199.91-5.08-3.8-10.15-7.59-15.22-11.38-34.15-72.61-29.84-139.7-29.92-189.77h0s-.04-9.09-.04-9.09c-.06-21.08.56-42.55,11.49-60.65,4.26-1.06,8.53-2.11,12.8-3.17,3.62-.9,7.24-1.79,10.86-2.69Z"/>
    <path class="cls-4" d="M303.75,55.15c3.55,0,7.14.56,12.02,1.73,5.47,50.34,2.84,102.19,2.4,152.96-.43,48-2.11,96.04-6.44,143.82-1.93,1.44-3.42,2.48-4.69,3.18-1.37.75-2.37,1.04-3.28,1.04s-1.91-.29-3.28-1.04c-1.27-.7-2.76-1.75-4.7-3.18-4.2-46.29-5.9-92.82-6.4-139.3l-.04-4.52c-.45-50.77-3.08-102.62,2.39-152.96,4.89-1.17,8.48-1.73,12.03-1.73Z"/>
    <path class="cls-4" d="M351.26,65.66c4.27,1.06,8.54,2.11,12.8,3.17,10.93,18.1,11.54,39.57,11.49,60.65l-.04,9.09c-.08,50.16,4.22,117.2-29.92,189.77-5.06,3.8-10.13,7.59-15.21,11.39,17.72-75.87,16.17-142.65,16.08-194.83v-5.09c.01-25.31,1.05-51.87-6.07-76.84,3.62.9,7.24,1.79,10.86,2.69Z"/>
    <path class="cls-2" d="M389.67,75.11c7.53,1.85,14.6,4.33,20.89,8.8,9.7,8.31,14.93,16.83,17.76,26.27,2.85,9.52,3.29,20.03,3.29,32.41,0,23.55,2.02,52.31-5.83,82.68-7.34,28.4-23.34,58.22-57.9,86.21,41.69-66.03,35.75-129.55,35.86-174.19.06-22.9-.81-42.85-14.05-62.18Z"/>
    <path class="cls-2" d="M566.74,62.62c13.15,3.63,19.33,19.17,11.66,30.69h0c-11.13,16.72-28.51,31.66-47.75,44.68-19.22,13.01-40.2,24.05-58.43,33.01l-.84.41v.93c0,14.03.62,33.63-6.34,60.73l-.29,1.13,1.02.56c35.78,19.7,60.58,39.2,75.09,58.92,8.14,11.12,2.86,26.84-9.99,31.25-5.2-16.78-21.25-32.64-39.57-46.16-18.45-13.62-39.52-25.09-55.03-32.95,13.29-35.16,11.49-62.09,11.45-89.26,19.3-9.02,46.7-22.41,70.42-38.6,12.04-8.21,23.18-17.17,31.85-26.68,8.24-9.04,14.32-18.66,16.74-28.67Z"/>
    <path class="cls-2" d="M530.7,2.49c13.48-4.38,27.17,6.35,26.14,20.51l-.06.7c-2.43,22.87-17.37,42.5-38.28,59.6-20.3,16.6-46.02,30.66-70.77,42.83v-1.5c0-30.51-20.75-56.84-50.28-64.14l-93.33-23.08-.36-.09-.36.09-93.33,23.08h0c-21.39,5.3-38.12,20.53-45.76,40.05-4.29,10.92-4.55,20.02-4.54,25.59-21.81-10.72-47.38-24.2-68.33-40.83-21.68-17.21-38.16-37.6-40.71-61.59h0c-1.56-14.55,12.44-25.66,26.08-21.21-4.97,13.43-2.93,25.55,3.24,36.44,6.35,11.2,17.06,21.1,28.92,29.9,9.7,7.52,21.63,14.93,32.34,20.99l1.45.82.66-1.53c2.89-6.71,6.6-13.01,11.01-18.79l.95-1.24-1.28-.9c-13.43-9.41-29.91-23.77-36.89-41.05h0c-5.11-12.67,6.6-25.41,19.41-21.88-2.45,8.83,1.87,17.89,8.45,25.85,7,8.48,16.9,16.14,25.39,21.72l.88.58.84-.63c9.81-7.3,16.45-10.71,33.77-15.58,17.4-4.88,45.37-11.16,97.79-24.2,53.27,13.25,81.37,19.62,98.63,24.5,17.18,4.85,23.39,8.16,32.93,15.27l.84.63.88-.58c8.5-5.58,18.4-13.25,25.4-21.72,6.58-7.96,10.9-17.02,8.45-25.85,12.82-3.52,24.54,9.22,19.41,21.88h0c-6.97,17.28-23.46,31.65-36.89,41.05l-1.28.9.95,1.24c4.41,5.78,8.12,12.08,11.01,18.79l.66,1.53,1.45-.82c12.4-7.02,23.18-13.95,32.21-20.89h0c11.72-9.09,22.54-18.85,28.99-29.93,6.28-10.78,8.4-22.8,3.29-36.52Z"/>
    <path class="cls-2" d="M136.11,171.4l-.84-.41c-18.3-8.97-39.29-20.02-58.5-33.04-18.92-12.82-36.03-27.49-47.15-43.87l-.53-.78c-7.65-11.52-1.47-27.06,11.68-30.69,2.39,9.88,8.31,19.37,16.37,28.3,8.48,9.4,19.4,18.26,31.3,26.44,23.46,16.11,50.9,29.63,71.32,39.2-.04,28.09-1.77,54.32,11.45,89.26-15.51,7.92-36.57,19.37-55.02,32.97-18.32,13.5-34.37,29.34-39.58,46.17-12.83-4.41-18.14-20.12-9.99-31.24,14.47-19.72,39.28-39.22,75.07-58.95l1.02-.56-.29-1.12c-6.99-27.32-6.32-47.11-6.32-60.73v-.93Z"/>
    <path class="cls-2" d="M182.9,270.74c12.45,21.87,29.21,40.48,48.17,54.66l71.79,53.7.9.67.9-.67c73.98-55.34,97.14-68.05,119.95-108.36,19.68,10.18,41.79,22.67,60.05,37.71,18.38,15.14,32.66,32.71,36.74,52.89l.19.96c2.64,14.32-10.73,26.27-24.55,22.6,1.47-4.49,3.44-12.39.05-22.96-3.79-11.78-14.17-26.63-38.73-43.77h-.01s-.02-.02-.02-.02l-.73-.51c-2.47-1.75-10.35-7.35-23.84-15.11l-1.16-.66-.8,1.07c-4.08,5.49-8.46,10.78-13.07,15.83l-1.19,1.3,1.47.96c13.73,9.01,32.93,24.3,40.95,43.15l.37.9c5.11,12.67-6.6,25.4-19.41,21.88,2.71-9.75-2.84-19.78-10.64-28.36-8.28-9.11-19.54-17.11-28.13-22.3l-.92-.56-.82.7c-7.32,6.22-1.63,1.73-96.64,72.81-95.71-71.59-89.58-66.81-96.64-72.81l-.82-.7-.93.56c-8.58,5.19-19.85,13.19-28.12,22.3-7.79,8.58-13.35,18.61-10.64,28.36-12.81,3.52-24.53-9.22-19.41-21.88h0c7.77-19.26,27.37-34.89,41.32-44.05l1.47-.96-1.19-1.3c-4.62-5.06-8.99-10.34-13.07-15.83l-.79-1.07-1.16.66c-15.4,8.84-23.5,14.9-24.57,15.62h-.01s-.01.02-.01.02c-24.56,17.13-34.94,31.98-38.73,43.77-3.4,10.56-1.43,18.45.03,22.95-13.94,3.66-27.19-8.39-24.54-22.6h0c3.84-20.79,18.6-38.84,37.43-54.26,18.39-15.06,40.48-27.45,59.53-37.3Z"/>
    <path class="cls-1" d="M62.88,575.38c-35.87,0-61.88-26.86-61.88-61.88s26.01-61.88,61.88-61.88c21.59,0,40.63,10.71,51,27.54l-23.46,13.6c-5.27-9.18-15.47-14.62-27.54-14.62-21.08,0-34.68,14.11-34.68,35.36s13.6,35.36,34.68,35.36c12.07,0,22.44-5.44,27.54-14.62l23.46,13.6c-10.2,16.83-29.24,27.54-51,27.54ZM181.75,575.38c-34.17,0-61.88-26.86-61.88-61.88s27.71-61.88,61.88-61.88,61.88,26.86,61.88,61.88-27.71,61.88-61.88,61.88ZM181.75,548.86c19.38,0,34.68-14.11,34.68-35.36s-15.3-35.36-34.68-35.36-34.68,14.11-34.68,35.36,15.3,35.36,34.68,35.36ZM306.54,454c32.81,0,57.8,25.84,57.8,59.5s-24.99,59.5-57.8,59.5h-47.6v-119h47.6ZM306.54,546.82c18.7,0,31.62-12.92,31.62-33.32s-12.92-33.32-31.62-33.32h-20.4v66.64h20.4ZM406.83,546.82h47.6v26.18h-74.8v-119h73.95v26.18h-46.75v19.72h42.5v25.84h-42.5v21.08ZM543.56,511.29c8.84,5.61,14.62,14.79,14.62,26.86,0,21.08-17.17,34.85-38.42,34.85h-49.98v-119h46.58c20.74,0,37.57,13.43,37.57,34,0,9.86-3.91,17.68-10.37,23.29ZM516.36,479.5h-19.38v21.08h19.38c6.12,0,10.37-4.42,10.37-10.54s-4.08-10.54-10.37-10.54ZM519.76,547.5c6.8,0,11.22-4.76,11.22-11.39s-4.42-11.39-11.22-11.39h-22.78v22.78h22.78ZM662.64,454l-39.95,73.27v45.73h-27.2v-45.73l-39.95-73.27h30.94l22.61,45.9,22.61-45.9h30.94Z"/>
    <g class="cls-3">
      <path class="cls-1" d="M113.88,479.16l.5.86.89-.51-.54-.88-.85.52ZM90.42,492.76l-.87.5.5.87.87-.5-.5-.86ZM90.42,534.24l.5-.86-.88-.51-.49.89.87.49ZM113.88,547.84l.85.52.53-.87-.88-.51-.5.87ZM62.88,575.38v-1c-35.31,0-60.88-26.4-60.88-60.88H0c0,35.56,26.45,62.88,62.88,62.88v-1ZM1,513.5h1c0-34.48,25.57-60.88,60.88-60.88v-2c-36.43,0-62.88,27.32-62.88,62.88h1ZM62.88,451.62v1c21.26,0,39.97,10.54,50.15,27.07l.85-.52.85-.52c-10.56-17.14-29.93-28.02-51.85-28.02v1ZM113.88,479.16l-.5-.86-23.46,13.6.5.87.5.86,23.46-13.6-.5-.86ZM90.42,492.76l.87-.5c-5.48-9.54-16.04-15.12-28.41-15.12v2c11.77,0,21.61,5.29,26.67,14.12l.87-.5ZM62.88,478.14v-1c-10.77,0-19.71,3.61-25.96,10.01-6.25,6.4-9.72,15.51-9.72,26.35h2c0-10.41,3.33-18.98,9.15-24.95,5.82-5.96,14.22-9.41,24.53-9.41v-1ZM28.2,513.5h-1c0,10.84,3.47,19.95,9.72,26.35,6.25,6.4,15.19,10.01,25.96,10.01v-2c-10.31,0-18.71-3.45-24.53-9.41-5.82-5.97-9.15-14.54-9.15-24.95h-1ZM62.88,548.86v1c12.36,0,23.11-5.58,28.41-15.13l-.87-.49-.87-.49c-4.89,8.8-14.89,14.11-26.67,14.11v1ZM90.42,534.24l-.5.86,23.46,13.6.5-.86.5-.87-23.46-13.6-.5.86ZM113.88,547.84l-.86-.52c-10.01,16.51-28.71,27.06-50.14,27.06v2c22.09,0,41.46-10.88,51.85-28.02l-.85-.52ZM181.75,575.38v-1c-33.63,0-60.88-26.42-60.88-60.88h-2c0,35.58,28.17,62.88,62.88,62.88v-1ZM119.87,513.5h1c0-34.46,27.25-60.88,60.88-60.88v-2c-34.71,0-62.88,27.3-62.88,62.88h1ZM181.75,451.62v1c33.63,0,60.88,26.42,60.88,60.88h2c0-35.58-28.17-62.88-62.88-62.88v1ZM243.63,513.5h-1c0,34.46-27.25,60.88-60.88,60.88v2c34.71,0,62.88-27.3,62.88-62.88h-1ZM181.75,548.86v1c19.92,0,35.68-14.55,35.68-36.36h-2c0,20.69-14.84,34.36-33.68,34.36v1ZM216.43,513.5h1c0-21.81-15.76-36.36-35.68-36.36v2c18.84,0,33.68,13.67,33.68,34.36h1ZM181.75,478.14v-1c-19.92,0-35.68,14.55-35.68,36.36h2c0-20.69,14.84-34.36,33.68-34.36v-1ZM147.07,513.5h-1c0,21.81,15.76,36.36,35.68,36.36v-2c-18.84,0-33.68-13.67-33.68-34.36h-1ZM258.94,573h-1v1h1v-1ZM258.94,454v-1h-1v1h1ZM286.14,480.18v-1h-1v1h1ZM286.14,546.82h-1v1h1v-1ZM306.54,454v1c32.23,0,56.8,25.36,56.8,58.5h2c0-34.18-25.41-60.5-58.8-60.5v1ZM364.34,513.5h-1c0,33.14-24.57,58.5-56.8,58.5v2c33.39,0,58.8-26.32,58.8-60.5h-1ZM306.54,573v-1h-47.6v2h47.6v-1ZM258.94,573h1v-119h-2v119h1ZM258.94,454v1h47.6v-2h-47.6v1ZM306.54,546.82v1c9.59,0,17.76-3.32,23.54-9.32,5.78-6,9.08-14.59,9.08-25h-2c0,9.99-3.16,18.05-8.52,23.62-5.36,5.56-12.99,8.7-22.1,8.7v1ZM338.16,513.5h1c0-10.41-3.3-19.01-9.08-25-5.78-6-13.96-9.32-23.54-9.32v2c9.11,0,16.75,3.14,22.1,8.7,5.36,5.56,8.52,13.63,8.52,23.62h1ZM306.54,480.18v-1h-20.4v2h20.4v-1ZM286.14,480.18h-1v66.64h2v-66.64h-1ZM286.14,546.82v1h20.4v-2h-20.4v1ZM406.83,546.82h-1v1h1v-1ZM454.44,546.82h1v-1h-1v1ZM454.44,573v1h1v-1h-1ZM379.63,573h-1v1h1v-1ZM379.63,454v-1h-1v1h1ZM453.58,454h1v-1h-1v1ZM453.58,480.18v1h1v-1h-1ZM406.83,480.18v-1h-1v1h1ZM406.83,499.9h-1v1h1v-1ZM449.33,499.9h1v-1h-1v1ZM449.33,525.74v1h1v-1h-1ZM406.83,525.74v-1h-1v1h1ZM406.83,546.82v1h47.6v-2h-47.6v1ZM454.44,546.82h-1v26.18h2v-26.18h-1ZM454.44,573v-1h-74.8v2h74.8v-1ZM379.63,573h1v-119h-2v119h1ZM379.63,454v1h73.95v-2h-73.95v1ZM453.58,454h-1v26.18h2v-26.18h-1ZM453.58,480.18v-1h-46.75v2h46.75v-1ZM406.83,480.18h-1v19.72h2v-19.72h-1ZM406.83,499.9v1h42.5v-2h-42.5v1ZM449.33,499.9h-1v25.84h2v-25.84h-1ZM449.33,525.74v-1h-42.5v2h42.5v-1ZM406.83,525.74h-1v21.08h2v-21.08h-1ZM543.56,511.29l-.66-.76-1.01.88,1.13.72.54-.84ZM469.78,573h-1v1h1v-1ZM469.78,454v-1h-1v1h1ZM496.98,479.5v-1h-1v1h1ZM496.98,500.58h-1v1h1v-1ZM496.98,524.72v-1h-1v1h1ZM496.98,547.5h-1v1h1v-1ZM543.56,511.29l-.54.84c8.57,5.44,14.16,14.31,14.16,26.02h2c0-12.43-5.97-21.92-15.08-27.7l-.54.84ZM558.18,538.15h-1c0,20.41-16.59,33.85-37.42,33.85v2c21.67,0,39.42-14.1,39.42-35.85h-1ZM519.76,573v-1h-49.98v2h49.98v-1ZM469.78,573h1v-119h-2v119h1ZM469.78,454v1h46.58v-2h-46.58v1ZM516.36,454v1c20.32,0,36.57,13.11,36.57,33h2c0-21.25-17.41-35-38.57-35v1ZM553.93,488h-1c0,9.57-3.78,17.11-10.03,22.54l.66.76.66.75c6.68-5.8,10.71-13.89,10.71-24.04h-1ZM516.36,479.5v-1h-19.38v2h19.38v-1ZM496.98,479.5h-1v21.08h2v-21.08h-1ZM496.98,500.58v1h19.38v-2h-19.38v1ZM516.36,500.58v1c3.31,0,6.17-1.2,8.2-3.28,2.03-2.07,3.17-4.97,3.17-8.26h-2c0,2.82-.98,5.2-2.61,6.87-1.62,1.66-3.95,2.67-6.76,2.67v1ZM526.73,490.04h1c0-3.29-1.1-6.18-3.11-8.26-2.01-2.08-4.88-3.28-8.26-3.28v2c2.9,0,5.23,1.01,6.82,2.67,1.6,1.66,2.55,4.03,2.55,6.87h1ZM519.76,547.5v1c3.64,0,6.72-1.28,8.88-3.51,2.16-2.23,3.34-5.34,3.34-8.88h-2c0,3.09-1.03,5.68-2.78,7.49-1.75,1.8-4.28,2.9-7.44,2.9v1ZM530.98,536.11h1c0-3.54-1.18-6.65-3.34-8.88-2.16-2.23-5.24-3.51-8.88-3.51v2c3.16,0,5.69,1.1,7.44,2.9,1.75,1.81,2.78,4.4,2.78,7.49h1ZM519.76,524.72v-1h-22.78v2h22.78v-1ZM496.98,524.72h-1v22.78h2v-22.78h-1ZM496.98,547.5v1h22.78v-2h-22.78v1ZM662.64,454l.88.48.81-1.48h-1.68v1ZM622.69,527.27l-.88-.48-.12.22v.26h1ZM622.69,573v1h1v-1h-1ZM595.49,573h-1v1h1v-1ZM595.49,527.27h1v-.26l-.12-.22-.88.48ZM555.54,454v-1h-1.68l.81,1.48.88-.48ZM586.48,454l.9-.44-.28-.56h-.62v1ZM609.09,499.9l-.9.44.9,1.82.9-1.82-.9-.44ZM631.7,454v-1h-.62l-.28.56.9.44ZM662.64,454l-.88-.48-39.95,73.27.88.48.88.48,39.95-73.27-.88-.48ZM622.69,527.27h-1v45.73h2v-45.73h-1ZM622.69,573v-1h-27.2v2h27.2v-1ZM595.49,573h1v-45.73h-2v45.73h1ZM595.49,527.27l.88-.48-39.95-73.27-.88.48-.88.48,39.95,73.27.88-.48ZM555.54,454v1h30.94v-2h-30.94v1ZM586.48,454l-.9.44,22.61,45.9.9-.44.9-.44-22.61-45.9-.9.44ZM609.09,499.9l.9.44,22.61-45.9-.9-.44-.9-.44-22.61,45.9.9.44ZM631.7,454v1h30.94v-2h-30.94v1Z"/>
    </g>
  </g>
</svg>