<svg width="1055" height="576" viewBox="0 0 1055 576" fill="none" xmlns="http://www.w3.org/2000/svg">
<path d="M221.951 75.1084C209.144 93.8045 207.905 113.071 207.896 135.034L207.898 137.293C208.001 183.04 202.295 245.835 243.745 311.476C208.387 282.806 192.362 251.913 185.204 223.088C177.557 192.295 180.008 163.87 180.008 142.591C180.008 130.221 180.446 119.702 183.296 110.186C186.123 100.746 191.345 92.2221 201.048 83.9141C207.34 79.4498 214.418 76.9624 221.951 75.1084Z" fill="white" stroke="white" stroke-width="3"/>
<path d="M271.195 62.9844C264.09 87.9491 265.115 114.504 265.134 139.82C265.172 192.538 262.911 261.352 281.214 339.728C276.134 335.93 271.061 332.139 265.995 328.347C231.842 255.736 236.154 188.648 236.076 138.576V138.575L236.039 129.489C235.983 108.408 236.603 86.9414 247.53 68.8369C251.795 67.7817 256.063 66.7271 260.332 65.6719C263.954 64.7766 267.576 63.8797 271.195 62.9844Z" fill="#36F097" stroke="#36F097" stroke-width="3"/>
<path d="M307.847 55.1543C311.397 55.1543 314.983 55.7151 319.865 56.8828C325.337 107.22 322.705 159.075 322.261 209.846C321.835 257.848 320.149 305.889 315.816 353.671C313.885 355.108 312.397 356.154 311.125 356.854C309.756 357.607 308.753 357.897 307.843 357.897C306.932 357.897 305.929 357.607 304.559 356.854C303.286 356.153 301.795 355.108 299.861 353.671C295.665 307.38 293.96 260.855 293.462 214.366L293.418 209.846C292.973 159.076 290.34 107.23 295.812 56.8848C300.704 55.7164 304.295 55.1543 307.847 55.1543Z" fill="#36F097" stroke="#36F097" stroke-width="3"/>
<path d="M355.357 65.6602C359.626 66.7154 363.895 67.77 368.159 68.8252C379.086 86.9296 379.7 108.395 379.648 129.478L379.613 138.564C379.536 188.723 383.836 255.763 349.692 328.336C344.635 332.135 339.561 335.927 334.485 339.725C352.206 263.855 350.65 197.073 350.56 144.899L350.556 139.809C350.574 114.502 351.608 87.9383 344.494 62.9727C348.114 63.868 351.736 64.7648 355.357 65.6602Z" fill="#36F097" stroke="#36F097" stroke-width="3"/>
<path d="M393.768 75.1084C401.294 76.9605 408.368 79.4425 414.659 83.9131C424.363 92.2218 429.587 100.745 432.414 110.186C435.264 119.702 435.702 130.221 435.702 142.591C435.702 166.145 437.725 194.903 429.869 225.276C422.525 253.672 406.526 283.495 371.966 311.485C413.652 245.452 407.719 181.937 407.821 137.293C407.886 114.396 407.012 94.4438 393.768 75.1084Z" fill="white" stroke="white" stroke-width="3"/>
<path d="M570.841 62.625C583.996 66.2593 590.175 81.7944 582.505 93.3145L582.504 93.3154C571.373 110.039 553.991 124.972 534.756 137.991C515.535 151.001 494.56 162.037 476.328 171.002L475.49 171.414V172.348C475.49 186.381 476.106 205.98 469.152 233.079L468.864 234.205L469.882 234.766C505.657 254.465 530.462 273.966 544.968 293.689C553.11 304.806 547.824 320.525 534.977 324.942C529.78 308.162 513.73 292.302 495.412 278.78C476.96 265.159 455.895 253.69 440.382 245.828C453.672 210.668 451.871 183.739 451.827 156.57C471.128 147.549 498.524 134.156 522.248 117.975C534.29 109.762 545.431 100.801 554.099 91.2949C562.343 82.2529 568.42 72.6355 570.841 62.625Z" fill="white" stroke="white" stroke-width="3"/>
<path d="M534.8 2.49414C548.28 -1.8844 561.974 8.83987 560.938 23.0039L560.876 23.7051C558.449 46.5724 543.502 66.2053 522.594 83.3057C502.292 99.9099 476.57 113.965 451.828 126.14V124.64C451.828 94.1314 431.074 67.7986 401.548 60.5L308.214 37.4219L307.854 37.333L307.494 37.4219L214.16 60.5V60.501C192.768 65.796 176.042 81.0284 168.405 100.548C164.114 111.468 163.852 120.563 163.861 126.133C142.046 115.41 116.48 101.937 95.5293 85.3037C73.8538 68.0944 57.3677 47.7007 54.8223 23.7148V23.7139C53.2657 9.16375 67.2634 -1.94863 80.9014 2.50195C75.9335 15.9325 77.9729 28.0559 84.1445 38.9453C90.4949 50.1502 101.209 60.041 113.062 68.8496C122.758 76.3696 134.691 83.7796 145.401 89.8398L146.855 90.6631L147.518 89.1289C150.413 82.4194 154.121 76.1181 158.527 70.3398L159.475 69.0977L158.195 68.2012C144.768 58.7955 128.285 44.427 121.304 27.1504H121.305C116.192 14.4825 127.904 1.74408 140.717 5.26562C138.267 14.0938 142.59 23.1519 149.171 31.1162C156.174 39.5918 166.07 47.2576 174.565 52.8389L175.442 53.415L176.284 52.7881C186.089 45.4884 192.729 42.0732 210.057 37.2119C227.459 32.3296 255.423 26.0484 307.844 13.0107C361.115 26.2561 389.217 32.6349 406.471 37.5117C423.647 42.3665 429.862 45.6738 439.404 52.7783L440.246 53.4053L441.123 52.8291C449.624 47.2478 459.522 39.5821 466.526 31.1064C473.108 23.142 477.431 14.0841 474.98 5.25586C487.795 1.73283 499.515 14.4734 494.395 27.1396V27.1406C487.423 44.4165 470.932 58.7853 457.504 68.1914L456.224 69.0879L457.171 70.3301C461.578 76.1084 465.286 82.4096 468.181 89.1191L468.843 90.6533L470.297 89.8301C482.698 82.8089 493.479 75.8791 502.51 68.9424L502.516 68.9385C514.234 59.8477 525.058 50.0875 531.508 39.0166C537.79 28.2331 539.912 16.2133 534.8 2.49414Z" fill="white" stroke="white" stroke-width="3"/>
<path d="M140.215 171.403L139.375 170.991C121.077 162.022 100.087 150.97 80.876 137.953C61.951 125.13 44.8452 110.462 33.7256 94.0869L33.2002 93.3057C25.5479 81.7852 31.7277 66.2497 44.8828 62.6152C47.2716 72.4995 53.1899 81.9853 61.251 90.918C69.7298 100.314 80.6523 109.182 92.5518 117.354C116.015 133.466 143.45 146.981 163.876 156.55C163.836 184.642 162.103 210.871 175.323 245.812C159.81 253.73 138.753 265.179 120.305 278.777C101.989 292.278 85.9389 308.113 80.7266 324.943C67.8941 320.534 62.5861 304.82 70.7373 293.707C85.2037 273.985 110.017 254.485 145.804 234.756L146.82 234.194L146.532 233.07C139.54 205.748 140.215 185.957 140.215 172.338V171.403Z" fill="white" stroke="white" stroke-width="3"/>
<path d="M187 270.739C199.445 292.605 216.214 311.22 235.166 325.396L306.957 379.095L307.855 379.767L308.754 379.095C382.737 323.754 405.893 311.04 428.701 270.74C448.377 280.915 470.495 293.413 488.748 308.452C507.127 323.596 521.404 341.165 525.491 361.347L525.679 362.31C528.321 376.634 514.946 388.585 501.128 384.913C502.597 380.42 504.57 372.519 501.173 361.953C497.384 350.171 487.003 335.319 462.439 318.186L462.424 318.175L462.407 318.164L461.681 317.656C459.213 315.909 451.33 310.302 437.842 302.549L436.686 301.885L435.89 302.955C431.811 308.447 427.432 313.73 422.819 318.783L421.633 320.083L423.104 321.048C436.838 330.063 456.033 345.344 464.054 364.198L464.428 365.099C469.54 377.766 457.827 390.503 445.015 386.981C447.721 377.231 442.171 367.198 434.376 358.617C426.098 349.504 414.833 341.505 406.25 336.316L405.325 335.758L404.503 336.457C397.188 342.678 402.874 338.187 307.864 409.267C212.159 337.677 218.281 342.456 211.228 336.457L210.404 335.758L209.479 336.316C200.897 341.505 189.631 349.504 181.354 358.617C173.559 367.198 168.008 377.231 170.714 386.981C157.9 390.503 146.182 377.764 151.302 365.099L151.303 365.098C159.077 345.84 178.675 330.206 192.626 321.048L194.097 320.083L192.91 318.783C188.288 313.72 183.918 308.447 179.84 302.955L179.045 301.885L177.889 302.549C162.488 311.392 154.387 317.453 153.315 318.169L153.303 318.178L153.29 318.186C128.726 335.319 118.346 350.171 114.555 361.953C111.158 372.509 113.12 380.405 114.58 384.898C100.638 388.557 87.391 376.509 90.041 362.301L90.042 362.299C93.8869 341.51 108.641 323.459 127.469 308.043C145.859 292.985 167.947 280.594 187 270.739Z" fill="white" stroke="white" stroke-width="3"/>
<mask id="path-10-inside-1_5207_73" fill="white">
<path d="M66.98 575.38C31.11 575.38 5.1 548.52 5.1 513.5C5.1 478.48 31.11 451.62 66.98 451.62C88.57 451.62 107.61 462.33 117.98 479.16L94.52 492.76C89.25 483.58 79.05 478.14 66.98 478.14C45.9 478.14 32.3 492.25 32.3 513.5C32.3 534.75 45.9 548.86 66.98 548.86C79.05 548.86 89.42 543.42 94.52 534.24L117.98 547.84C107.78 564.67 88.74 575.38 66.98 575.38ZM185.847 575.38C151.677 575.38 123.967 548.52 123.967 513.5C123.967 478.48 151.677 451.62 185.847 451.62C220.017 451.62 247.727 478.48 247.727 513.5C247.727 548.52 220.017 575.38 185.847 575.38ZM185.847 548.86C205.227 548.86 220.527 534.75 220.527 513.5C220.527 492.25 205.227 478.14 185.847 478.14C166.467 478.14 151.167 492.25 151.167 513.5C151.167 534.75 166.467 548.86 185.847 548.86ZM310.642 454C343.452 454 368.442 479.84 368.442 513.5C368.442 547.16 343.452 573 310.642 573H263.042V454H310.642ZM310.642 546.82C329.342 546.82 342.262 533.9 342.262 513.5C342.262 493.1 329.342 480.18 310.642 480.18H290.242V546.82H310.642ZM410.935 546.82H458.535V573H383.735V454H457.685V480.18H410.935V499.9H453.435V525.74H410.935V546.82ZM547.662 511.29C556.502 516.9 562.282 526.08 562.282 538.15C562.282 559.23 545.112 573 523.862 573H473.882V454H520.462C541.202 454 558.032 467.43 558.032 488C558.032 497.86 554.122 505.68 547.662 511.29ZM520.462 479.5H501.082V500.58H520.462C526.582 500.58 530.832 496.16 530.832 490.04C530.832 483.92 526.752 479.5 520.462 479.5ZM523.862 547.5C530.662 547.5 535.082 542.74 535.082 536.11C535.082 529.48 530.662 524.72 523.862 524.72H501.082V547.5H523.862ZM666.739 454L626.789 527.27V573H599.589V527.27L559.639 454H590.579L613.189 499.9L635.799 454H666.739Z"/>
</mask>
<path d="M66.98 575.38C31.11 575.38 5.1 548.52 5.1 513.5C5.1 478.48 31.11 451.62 66.98 451.62C88.57 451.62 107.61 462.33 117.98 479.16L94.52 492.76C89.25 483.58 79.05 478.14 66.98 478.14C45.9 478.14 32.3 492.25 32.3 513.5C32.3 534.75 45.9 548.86 66.98 548.86C79.05 548.86 89.42 543.42 94.52 534.24L117.98 547.84C107.78 564.67 88.74 575.38 66.98 575.38ZM185.847 575.38C151.677 575.38 123.967 548.52 123.967 513.5C123.967 478.48 151.677 451.62 185.847 451.62C220.017 451.62 247.727 478.48 247.727 513.5C247.727 548.52 220.017 575.38 185.847 575.38ZM185.847 548.86C205.227 548.86 220.527 534.75 220.527 513.5C220.527 492.25 205.227 478.14 185.847 478.14C166.467 478.14 151.167 492.25 151.167 513.5C151.167 534.75 166.467 548.86 185.847 548.86ZM310.642 454C343.452 454 368.442 479.84 368.442 513.5C368.442 547.16 343.452 573 310.642 573H263.042V454H310.642ZM310.642 546.82C329.342 546.82 342.262 533.9 342.262 513.5C342.262 493.1 329.342 480.18 310.642 480.18H290.242V546.82H310.642ZM410.935 546.82H458.535V573H383.735V454H457.685V480.18H410.935V499.9H453.435V525.74H410.935V546.82ZM547.662 511.29C556.502 516.9 562.282 526.08 562.282 538.15C562.282 559.23 545.112 573 523.862 573H473.882V454H520.462C541.202 454 558.032 467.43 558.032 488C558.032 497.86 554.122 505.68 547.662 511.29ZM520.462 479.5H501.082V500.58H520.462C526.582 500.58 530.832 496.16 530.832 490.04C530.832 483.92 526.752 479.5 520.462 479.5ZM523.862 547.5C530.662 547.5 535.082 542.74 535.082 536.11C535.082 529.48 530.662 524.72 523.862 524.72H501.082V547.5H523.862ZM666.739 454L626.789 527.27V573H599.589V527.27L559.639 454H590.579L613.189 499.9L635.799 454H666.739Z" fill="white"/>
<path d="M117.98 479.16L118.482 480.025L119.37 479.51L118.831 478.635L117.98 479.16ZM94.52 492.76L93.6528 493.258L94.1527 494.129L95.0215 493.625L94.52 492.76ZM94.52 534.24L95.0215 533.375L94.1404 532.864L93.6459 533.754L94.52 534.24ZM117.98 547.84L118.835 548.358L119.364 547.486L118.482 546.975L117.98 547.84ZM66.98 575.38V574.38C31.6713 574.38 6.1 547.977 6.1 513.5H5.1H4.1C4.1 549.063 30.5487 576.38 66.98 576.38V575.38ZM5.1 513.5H6.1C6.1 479.023 31.6713 452.62 66.98 452.62V451.62V450.62C30.5487 450.62 4.1 477.937 4.1 513.5H5.1ZM66.98 451.62V452.62C88.2375 452.62 106.948 463.162 117.129 479.685L117.98 479.16L118.831 478.635C108.272 461.498 88.9025 450.62 66.98 450.62V451.62ZM117.98 479.16L117.478 478.295L94.0185 491.895L94.52 492.76L95.0215 493.625L118.482 480.025L117.98 479.16ZM94.52 492.76L95.3873 492.262C89.912 482.725 79.3505 477.14 66.98 477.14V478.14V479.14C78.7495 479.14 88.588 484.435 93.6528 493.258L94.52 492.76ZM66.98 478.14V477.14C56.2103 477.14 47.2686 480.75 41.0193 487.153C34.7727 493.553 31.3 502.659 31.3 513.5H32.3H33.3C33.3 503.091 36.6273 494.517 42.4507 488.55C48.2714 482.585 56.6697 479.14 66.98 479.14V478.14ZM32.3 513.5H31.3C31.3 524.341 34.7727 533.447 41.0193 539.847C47.2686 546.25 56.2103 549.86 66.98 549.86V548.86V547.86C56.6697 547.86 48.2714 544.415 42.4507 538.45C36.6273 532.483 33.3 523.909 33.3 513.5H32.3ZM66.98 548.86V549.86C79.3407 549.86 90.0852 544.282 95.3942 534.726L94.52 534.24L93.6459 533.754C88.7548 542.558 78.7594 547.86 66.98 547.86V548.86ZM94.52 534.24L94.0185 535.105L117.478 548.705L117.98 547.84L118.482 546.975L95.0215 533.375L94.52 534.24ZM117.98 547.84L117.125 547.322C107.116 563.836 88.4106 574.38 66.98 574.38V575.38V576.38C89.0694 576.38 108.444 565.504 118.835 548.358L117.98 547.84ZM185.847 575.38V574.38C152.22 574.38 124.967 547.959 124.967 513.5H123.967H122.967C122.967 549.081 151.134 576.38 185.847 576.38V575.38ZM123.967 513.5H124.967C124.967 479.041 152.22 452.62 185.847 452.62V451.62V450.62C151.134 450.62 122.967 477.919 122.967 513.5H123.967ZM185.847 451.62V452.62C219.474 452.62 246.727 479.041 246.727 513.5H247.727H248.727C248.727 477.919 220.56 450.62 185.847 450.62V451.62ZM247.727 513.5H246.727C246.727 547.959 219.474 574.38 185.847 574.38V575.38V576.38C220.56 576.38 248.727 549.081 248.727 513.5H247.727ZM185.847 548.86V549.86C205.77 549.86 221.527 535.312 221.527 513.5H220.527H219.527C219.527 534.188 204.685 547.86 185.847 547.86V548.86ZM220.527 513.5H221.527C221.527 491.688 205.77 477.14 185.847 477.14V478.14V479.14C204.685 479.14 219.527 492.812 219.527 513.5H220.527ZM185.847 478.14V477.14C165.925 477.14 150.167 491.688 150.167 513.5H151.167H152.167C152.167 492.812 167.01 479.14 185.847 479.14V478.14ZM151.167 513.5H150.167C150.167 535.312 165.925 549.86 185.847 549.86V548.86V547.86C167.01 547.86 152.167 534.188 152.167 513.5H151.167ZM263.042 573H262.042V574H263.042V573ZM263.042 454V453H262.042V454H263.042ZM290.242 480.18V479.18H289.242V480.18H290.242ZM290.242 546.82H289.242V547.82H290.242V546.82ZM310.642 454V455C342.871 455 367.442 480.363 367.442 513.5H368.442H369.442C369.442 479.317 344.032 453 310.642 453V454ZM368.442 513.5H367.442C367.442 546.637 342.871 572 310.642 572V573V574C344.032 574 369.442 547.683 369.442 513.5H368.442ZM310.642 573V572H263.042V573V574H310.642V573ZM263.042 573H264.042V454H263.042H262.042V573H263.042ZM263.042 454V455H310.642V454V453H263.042V454ZM310.642 546.82V547.82C320.229 547.82 328.406 544.503 334.185 538.504C339.961 532.507 343.262 523.914 343.262 513.5H342.262H341.262C341.262 523.486 338.103 531.553 332.744 537.116C327.388 542.677 319.754 545.82 310.642 545.82V546.82ZM342.262 513.5H343.262C343.262 503.086 339.961 494.493 334.185 488.496C328.406 482.497 320.229 479.18 310.642 479.18V480.18V481.18C319.754 481.18 327.388 484.323 332.744 489.884C338.103 495.447 341.262 503.514 341.262 513.5H342.262ZM310.642 480.18V479.18H290.242V480.18V481.18H310.642V480.18ZM290.242 480.18H289.242V546.82H290.242H291.242V480.18H290.242ZM290.242 546.82V547.82H310.642V546.82V545.82H290.242V546.82ZM410.935 546.82H409.935V547.82H410.935V546.82ZM458.535 546.82H459.535V545.82H458.535V546.82ZM458.535 573V574H459.535V573H458.535ZM383.735 573H382.735V574H383.735V573ZM383.735 454V453H382.735V454H383.735ZM457.685 454H458.685V453H457.685V454ZM457.685 480.18V481.18H458.685V480.18H457.685ZM410.935 480.18V479.18H409.935V480.18H410.935ZM410.935 499.9H409.935V500.9H410.935V499.9ZM453.435 499.9H454.435V498.9H453.435V499.9ZM453.435 525.74V526.74H454.435V525.74H453.435ZM410.935 525.74V524.74H409.935V525.74H410.935ZM410.935 546.82V547.82H458.535V546.82V545.82H410.935V546.82ZM458.535 546.82H457.535V573H458.535H459.535V546.82H458.535ZM458.535 573V572H383.735V573V574H458.535V573ZM383.735 573H384.735V454H383.735H382.735V573H383.735ZM383.735 454V455H457.685V454V453H383.735V454ZM457.685 454H456.685V480.18H457.685H458.685V454H457.685ZM457.685 480.18V479.18H410.935V480.18V481.18H457.685V480.18ZM410.935 480.18H409.935V499.9H410.935H411.935V480.18H410.935ZM410.935 499.9V500.9H453.435V499.9V498.9H410.935V499.9ZM453.435 499.9H452.435V525.74H453.435H454.435V499.9H453.435ZM453.435 525.74V524.74H410.935V525.74V526.74H453.435V525.74ZM410.935 525.74H409.935V546.82H410.935H411.935V525.74H410.935ZM547.662 511.29L547.006 510.535L545.992 511.415L547.126 512.134L547.662 511.29ZM473.882 573H472.882V574H473.882V573ZM473.882 454V453H472.882V454H473.882ZM501.082 479.5V478.5H500.082V479.5H501.082ZM501.082 500.58H500.082V501.58H501.082V500.58ZM501.082 524.72V523.72H500.082V524.72H501.082ZM501.082 547.5H500.082V548.5H501.082V547.5ZM547.662 511.29L547.126 512.134C555.693 517.571 561.282 526.441 561.282 538.15H562.282H563.282C563.282 525.719 557.31 516.229 548.197 510.446L547.662 511.29ZM562.282 538.15H561.282C561.282 558.556 544.689 572 523.862 572V573V574C545.534 574 563.282 559.904 563.282 538.15H562.282ZM523.862 573V572H473.882V573V574H523.862V573ZM473.882 573H474.882V454H473.882H472.882V573H473.882ZM473.882 454V455H520.462V454V453H473.882V454ZM520.462 454V455C540.783 455 557.032 468.107 557.032 488H558.032H559.032C559.032 466.753 541.621 453 520.462 453V454ZM558.032 488H557.032C557.032 497.567 553.25 505.113 547.006 510.535L547.662 511.29L548.317 512.045C554.993 506.247 559.032 498.153 559.032 488H558.032ZM520.462 479.5V478.5H501.082V479.5V480.5H520.462V479.5ZM501.082 479.5H500.082V500.58H501.082H502.082V479.5H501.082ZM501.082 500.58V501.58H520.462V500.58V499.58H501.082V500.58ZM520.462 500.58V501.58C523.771 501.58 526.628 500.38 528.657 498.304C530.684 496.23 531.832 493.336 531.832 490.04H530.832H529.832C529.832 492.864 528.854 495.24 527.226 496.906C525.601 498.57 523.272 499.58 520.462 499.58V500.58ZM530.832 490.04H531.832C531.832 486.755 530.734 483.86 528.725 481.78C526.712 479.696 523.85 478.5 520.462 478.5V479.5V480.5C523.363 480.5 525.687 481.514 527.286 483.17C528.89 484.83 529.832 487.205 529.832 490.04H530.832ZM523.862 547.5V548.5C527.504 548.5 530.578 547.22 532.74 544.987C534.899 542.758 536.082 539.65 536.082 536.11H535.082H534.082C534.082 539.2 533.055 541.787 531.303 543.596C529.556 545.4 527.019 546.5 523.862 546.5V547.5ZM535.082 536.11H536.082C536.082 532.57 534.899 529.462 532.74 527.233C530.578 525 527.504 523.72 523.862 523.72V524.72V525.72C527.019 525.72 529.556 526.82 531.303 528.624C533.055 530.433 534.082 533.02 534.082 536.11H535.082ZM523.862 524.72V523.72H501.082V524.72V525.72H523.862V524.72ZM501.082 524.72H500.082V547.5H501.082H502.082V524.72H501.082ZM501.082 547.5V548.5H523.862V547.5V546.5H501.082V547.5ZM666.739 454L667.617 454.479L668.423 453H666.739V454ZM626.789 527.27L625.911 526.791L625.789 527.015V527.27H626.789ZM626.789 573V574H627.789V573H626.789ZM599.589 573H598.589V574H599.589V573ZM599.589 527.27H600.589V527.015L600.467 526.791L599.589 527.27ZM559.639 454V453H557.954L558.761 454.479L559.639 454ZM590.579 454L591.476 453.558L591.201 453H590.579V454ZM613.189 499.9L612.292 500.342L613.189 502.163L614.086 500.342L613.189 499.9ZM635.799 454V453H635.177L634.902 453.558L635.799 454ZM666.739 454L665.861 453.521L625.911 526.791L626.789 527.27L627.667 527.749L667.617 454.479L666.739 454ZM626.789 527.27H625.789V573H626.789H627.789V527.27H626.789ZM626.789 573V572H599.589V573V574H626.789V573ZM599.589 573H600.589V527.27H599.589H598.589V573H599.589ZM599.589 527.27L600.467 526.791L560.517 453.521L559.639 454L558.761 454.479L598.711 527.749L599.589 527.27ZM559.639 454V455H590.579V454V453H559.639V454ZM590.579 454L589.682 454.442L612.292 500.342L613.189 499.9L614.086 499.458L591.476 453.558L590.579 454ZM613.189 499.9L614.086 500.342L636.696 454.442L635.799 454L634.902 453.558L612.292 499.458L613.189 499.9ZM635.799 454V455H666.739V454V453H635.799V454Z" fill="white" mask="url(#path-10-inside-1_5207_73)"/>
</svg>
